<mxfile host="app.diagrams.net" modified="2022-05-06T13:43:12.883Z" agent="5.0 (Windows NT 10.0; Win64; x64) AppleWebKit/537.36 (KHTML, like Gecko) Chrome/101.0.4951.54 Safari/537.36" etag="2gjv6o5dNHqJja1tTtAX" version="18.0.1" type="github" pages="2">
  <diagram id="YMY_wa3Tj3zfgHzCUn20" name="Page-1">
    <mxGraphModel dx="1335" dy="708" grid="1" gridSize="10" guides="1" tooltips="1" connect="1" arrows="1" fold="1" page="1" pageScale="1" pageWidth="827" pageHeight="1169" math="0" shadow="0">
      <root>
        <mxCell id="0" />
        <mxCell id="1" parent="0" />
        <mxCell id="Z8xxBwykwzpVqhk9zmbU-1" value="Begin&lt;br&gt;Input C&lt;br&gt;F= 9C/5 +32&lt;br&gt;Display F&lt;br&gt;End" style="text;html=1;strokeColor=none;fillColor=none;align=center;verticalAlign=middle;whiteSpace=wrap;rounded=0;" vertex="1" parent="1">
          <mxGeometry x="400" y="80" width="260" height="190" as="geometry" />
        </mxCell>
        <mxCell id="Z8xxBwykwzpVqhk9zmbU-4" value="" style="edgeStyle=orthogonalEdgeStyle;rounded=0;orthogonalLoop=1;jettySize=auto;html=1;" edge="1" parent="1" source="Z8xxBwykwzpVqhk9zmbU-2" target="Z8xxBwykwzpVqhk9zmbU-3">
          <mxGeometry relative="1" as="geometry" />
        </mxCell>
        <mxCell id="Z8xxBwykwzpVqhk9zmbU-2" value="Begin" style="ellipse;whiteSpace=wrap;html=1;" vertex="1" parent="1">
          <mxGeometry x="210" y="20" width="120" height="80" as="geometry" />
        </mxCell>
        <mxCell id="Z8xxBwykwzpVqhk9zmbU-6" value="" style="edgeStyle=orthogonalEdgeStyle;rounded=0;orthogonalLoop=1;jettySize=auto;html=1;" edge="1" parent="1" source="Z8xxBwykwzpVqhk9zmbU-3" target="Z8xxBwykwzpVqhk9zmbU-5">
          <mxGeometry relative="1" as="geometry" />
        </mxCell>
        <mxCell id="Z8xxBwykwzpVqhk9zmbU-3" value="Input C" style="shape=parallelogram;perimeter=parallelogramPerimeter;whiteSpace=wrap;html=1;fixedSize=1;" vertex="1" parent="1">
          <mxGeometry x="210" y="190" width="120" height="60" as="geometry" />
        </mxCell>
        <mxCell id="Z8xxBwykwzpVqhk9zmbU-8" value="" style="edgeStyle=orthogonalEdgeStyle;rounded=0;orthogonalLoop=1;jettySize=auto;html=1;" edge="1" parent="1" source="Z8xxBwykwzpVqhk9zmbU-5" target="Z8xxBwykwzpVqhk9zmbU-7">
          <mxGeometry relative="1" as="geometry" />
        </mxCell>
        <mxCell id="Z8xxBwykwzpVqhk9zmbU-5" value="F = 9C/5 + 32" style="whiteSpace=wrap;html=1;" vertex="1" parent="1">
          <mxGeometry x="210" y="330" width="120" height="60" as="geometry" />
        </mxCell>
        <mxCell id="Z8xxBwykwzpVqhk9zmbU-10" value="" style="edgeStyle=orthogonalEdgeStyle;rounded=0;orthogonalLoop=1;jettySize=auto;html=1;" edge="1" parent="1" source="Z8xxBwykwzpVqhk9zmbU-7" target="Z8xxBwykwzpVqhk9zmbU-9">
          <mxGeometry relative="1" as="geometry" />
        </mxCell>
        <mxCell id="Z8xxBwykwzpVqhk9zmbU-7" value="Display F" style="shape=parallelogram;perimeter=parallelogramPerimeter;whiteSpace=wrap;html=1;fixedSize=1;" vertex="1" parent="1">
          <mxGeometry x="210" y="470" width="120" height="60" as="geometry" />
        </mxCell>
        <mxCell id="Z8xxBwykwzpVqhk9zmbU-9" value="End" style="ellipse;whiteSpace=wrap;html=1;" vertex="1" parent="1">
          <mxGeometry x="210" y="610" width="120" height="60" as="geometry" />
        </mxCell>
      </root>
    </mxGraphModel>
  </diagram>
  <diagram id="M3JLpvpiYv6Vrr1dCzea" name="Page-2">
    <mxGraphModel dx="868" dy="460" grid="1" gridSize="10" guides="1" tooltips="1" connect="1" arrows="1" fold="1" page="1" pageScale="1" pageWidth="827" pageHeight="1169" math="0" shadow="0">
      <root>
        <mxCell id="0" />
        <mxCell id="1" parent="0" />
        <mxCell id="BygqLIJQx4Dv9xZfl5SY-1" value="Begin&lt;br&gt;" style="text;html=1;strokeColor=none;fillColor=none;align=center;verticalAlign=middle;whiteSpace=wrap;rounded=0;" vertex="1" parent="1">
          <mxGeometry x="380" y="270" width="60" height="30" as="geometry" />
        </mxCell>
      </root>
    </mxGraphModel>
  </diagram>
</mxfile>
